<svg xmlns="http://www.w3.org/2000/svg" xmlns:xlink="http://www.w3.org/1999/xlink" width="300" viewBox="0 0 300 75" height="75" version="1.0"><defs><clipPath id="d"><path d="M 0.21875 0 L 73.71875 0 L 73.71875 75 L 0.21875 75 Z M 0.21875 0"/></clipPath><clipPath id="c"><path d="M0 0H74V75H0z"/></clipPath><filter x="0%" y="0%" width="100%" xmlns:xlink="http://www.w3.org/1999/xlink" xlink:type="simple" xlink:actuate="onLoad" height="100%" id="a" xlink:show="other"><feColorMatrix values="0 0 0 0 1 0 0 0 0 1 0 0 0 0 1 0 0 0 1 0" color-interpolation-filters="sRGB"/></filter><mask id="b"><g filter="url(#a)"><path fill-opacity=".51" d="M-30 -7.5H330V82.5H-30z"/></g></mask></defs><g mask="url(#b)"><g><g clip-path="url(#c)" transform="translate(226)"><g clip-path="url(#d)"><path fill="#4C49AC" d="M 31.363281 0 C 18.320312 0 7.707031 10.652344 7.707031 23.75 L 7.707031 30 L 3.96875 30 C 1.917969 30 0.234375 31.6875 0.234375 33.75 L 0.234375 71.25 C 0.234375 73.308594 1.917969 75 3.96875 75 L 61.25 75 C 63.304688 75 64.988281 73.308594 64.988281 71.25 L 64.988281 64.0625 C 70.09375 62.058594 73.703125 57.074219 73.703125 51.25 C 73.703125 45.425781 70.09375 40.4375 64.988281 38.4375 L 64.988281 33.75 C 64.988281 31.6875 63.304688 30 61.25 30 L 57.515625 30 L 57.515625 23.75 C 57.515625 10.652344 46.902344 0 33.855469 0 Z M 31.363281 2.5 L 33.855469 2.5 C 34.277344 2.5 34.6875 2.539062 35.101562 2.5625 L 35.101562 7.5625 C 34.6875 7.527344 34.277344 7.5 33.855469 7.5 L 31.363281 7.5 C 30.941406 7.5 30.535156 7.527344 30.121094 7.5625 L 30.121094 2.5625 C 30.535156 2.539062 30.941406 2.5 31.363281 2.5 Z M 27.628906 2.851562 L 27.628906 7.953125 C 20.503906 9.652344 15.175781 16.082031 15.175781 23.75 L 15.175781 30 L 10.195312 30 L 10.195312 23.75 C 10.195312 13.316406 17.734375 4.628906 27.628906 2.851562 Z M 37.589844 2.851562 C 47.484375 4.628906 55.023438 13.316406 55.023438 23.75 L 55.023438 30 L 50.042969 30 L 50.042969 23.75 C 50.042969 16.082031 44.71875 9.652344 37.589844 7.953125 Z M 31.363281 10 L 33.855469 10 C 41.410156 10 47.554688 16.167969 47.554688 23.75 L 47.554688 30 L 17.667969 30 L 17.667969 23.75 C 17.667969 16.167969 23.8125 10 31.363281 10 Z M 3.96875 32.5 L 61.25 32.5 C 61.9375 32.5 62.496094 33.0625 62.496094 33.75 L 62.496094 37.722656 C 61.6875 37.574219 60.851562 37.5 60.003906 37.5 C 52.445312 37.5 46.308594 43.660156 46.308594 51.25 C 46.308594 58.835938 52.445312 65 60.003906 65 C 60.851562 65 61.6875 64.925781 62.496094 64.773438 L 62.496094 71.25 C 62.496094 71.9375 61.9375 72.5 61.25 72.5 L 3.96875 72.5 C 3.285156 72.5 2.726562 71.9375 2.726562 71.25 L 2.726562 33.75 C 2.726562 33.0625 3.285156 32.5 3.96875 32.5 Z M 60.003906 40 C 60.867188 40 61.699219 40.101562 62.496094 40.273438 C 63.367188 40.472656 64.203125 40.785156 64.988281 41.171875 C 68.671875 43.011719 71.210938 46.835938 71.210938 51.25 C 71.210938 55.664062 68.671875 59.488281 64.988281 61.328125 C 64.203125 61.714844 63.367188 62.027344 62.496094 62.226562 C 61.699219 62.398438 60.867188 62.5 60.003906 62.5 C 53.828125 62.5 48.796875 57.449219 48.796875 51.25 C 48.796875 45.046875 53.828125 40 60.003906 40 Z M 64.988281 46.664062 C 64.664062 46.664062 64.347656 46.785156 64.105469 47.03125 L 58.347656 52.816406 L 55.90625 50.367188 C 55.417969 49.878906 54.636719 49.878906 54.148438 50.367188 C 53.65625 50.855469 53.65625 51.644531 54.148438 52.132812 L 57.464844 55.46875 C 57.699219 55.703125 58.015625 55.835938 58.347656 55.835938 C 58.675781 55.835938 58.992188 55.703125 59.226562 55.46875 L 65.867188 48.796875 C 66.351562 48.308594 66.351562 47.523438 65.867188 47.03125 C 65.625 46.785156 65.308594 46.664062 64.988281 46.664062 Z M 15.175781 47.5 C 13.800781 47.5 12.6875 48.617188 12.6875 50 C 12.6875 51.382812 13.800781 52.5 15.175781 52.5 C 16.554688 52.5 17.667969 51.382812 17.667969 50 C 17.667969 48.617188 16.554688 47.5 15.175781 47.5 Z M 26.382812 47.5 C 25.007812 47.5 23.894531 48.617188 23.894531 50 C 23.894531 51.382812 25.007812 52.5 26.382812 52.5 C 27.761719 52.5 28.875 51.382812 28.875 50 C 28.875 48.617188 27.761719 47.5 26.382812 47.5 Z M 37.589844 47.5 C 36.214844 47.5 35.101562 48.617188 35.101562 50 C 35.101562 51.382812 36.214844 52.5 37.589844 52.5 C 38.96875 52.5 40.082031 51.382812 40.082031 50 C 40.082031 48.617188 38.96875 47.5 37.589844 47.5 Z M 6.460938 67.5 C 5.773438 67.5 5.214844 68.054688 5.214844 68.75 C 5.214844 69.441406 5.773438 70 6.460938 70 L 48.796875 70 C 49.484375 70 50.042969 69.441406 50.042969 68.75 C 50.042969 68.054688 49.484375 67.5 48.796875 67.5 Z M 53.78125 67.5 C 53.09375 67.5 52.535156 68.054688 52.535156 68.75 C 52.535156 69.441406 53.09375 70 53.78125 70 L 58.761719 70 C 59.445312 70 60.003906 69.441406 60.003906 68.75 C 60.003906 68.054688 59.445312 67.5 58.761719 67.5 Z M 53.78125 67.5"/></g></g></g></g><g fill="#4C49AC"><g><g><path d="M 30.929688 -38.441406 C 27.414062 -40.597656 22.136719 -40.28125 16.902344 -37.800781 C 17.023438 -38.402344 17.144531 -39 17.222656 -39.519531 C 17.300781 -39.921875 17.023438 -40.320312 16.625 -40.398438 C 16.183594 -40.480469 15.785156 -40.199219 15.703125 -39.761719 C 15.585938 -38.921875 15.382812 -37.960938 15.183594 -36.882812 C 14.34375 -36.445312 13.507812 -35.882812 12.707031 -35.324219 C 6.273438 -30.6875 0.199219 -22.136719 2.476562 -11.90625 C 2.558594 -11.507812 2.957031 -11.230469 3.398438 -11.347656 C 3.796875 -11.429688 4.074219 -11.828125 3.957031 -12.269531 C 1.839844 -21.738281 7.550781 -29.730469 13.585938 -34.046875 C 13.984375 -34.324219 14.386719 -34.605469 14.785156 -34.886719 C 14.027344 -31.007812 13.027344 -26.132812 11.949219 -20.777344 C 8.632812 -4.394531 6.632812 5.792969 5.554688 12.1875 C 5.195312 11.667969 4.953125 10.988281 4.875 10.148438 C 4.796875 9.710938 4.4375 9.429688 3.996094 9.46875 C 3.597656 9.511719 3.277344 9.910156 3.316406 10.308594 C 3.515625 12.027344 4.195312 13.265625 5.234375 14.027344 C 3.917969 22.058594 4.355469 22.738281 5.15625 22.976562 C 5.234375 23.015625 5.355469 23.015625 5.433594 23.015625 C 6.195312 23.015625 6.714844 22.019531 7.550781 19.980469 C 7.710938 19.582031 7.550781 19.140625 7.152344 18.980469 C 6.753906 18.820312 6.3125 18.980469 6.152344 19.378906 C 6.074219 19.539062 6.035156 19.660156 5.992188 19.78125 C 6.113281 18.5 6.355469 16.742188 6.671875 14.625 C 6.992188 14.664062 7.3125 14.707031 7.671875 14.746094 C 7.710938 14.746094 7.753906 14.746094 7.753906 14.746094 C 11.867188 14.746094 17.941406 10.390625 23.257812 3.636719 C 29.570312 -4.316406 33.804688 -14.304688 35.285156 -24.375 C 36.5625 -33.046875 33.605469 -36.804688 30.929688 -38.441406 Z M 33.765625 -24.617188 C 31.847656 -11.347656 25.613281 -1.796875 22.058594 2.71875 C 16.34375 9.949219 10.75 13.1875 7.753906 13.1875 C 7.753906 13.1875 7.710938 13.1875 7.710938 13.1875 C 7.433594 13.1875 7.191406 13.148438 6.953125 13.105469 C 8.472656 4.117188 11.308594 -9.949219 13.464844 -20.460938 C 14.664062 -26.453125 15.785156 -31.847656 16.542969 -35.882812 C 21.617188 -38.601562 26.8125 -39.121094 30.128906 -37.121094 C 33.40625 -35.125 34.683594 -30.808594 33.765625 -24.617188 Z M 33.765625 -24.617188" transform="translate(0 42.217)"/></g></g></g><g fill="#4C49AC"><g><g><path d="M 11.667969 -9.070312 C 11.308594 -9.3125 10.867188 -9.191406 10.628906 -8.832031 C 7.953125 -4.515625 3.476562 -0.441406 2.117188 -1 C 1.957031 -1.078125 0.679688 -1.839844 2.4375 -8.589844 C 2.515625 -9.03125 2.277344 -9.429688 1.878906 -9.550781 C 1.4375 -9.628906 1.039062 -9.390625 0.917969 -8.992188 C -0.519531 -3.355469 -0.320312 -0.359375 1.480469 0.398438 C 1.757812 0.519531 2.039062 0.558594 2.316406 0.558594 C 5.316406 0.558594 9.910156 -4.796875 11.949219 -8.03125 C 12.148438 -8.390625 12.027344 -8.871094 11.667969 -9.070312 Z M 2.238281 -12.308594 C 4.277344 -12.1875 4.234375 -14.746094 2.597656 -14.1875 C 1.757812 -13.945312 0.679688 -12.386719 2.238281 -12.308594 Z M 2.238281 -12.308594" transform="translate(33.997 42.217)"/></g></g></g><g fill="#4C49AC"><g><g><path d="M 18.300781 -8.832031 C 18.0625 -9.191406 17.582031 -9.269531 17.261719 -9.070312 C 14.464844 -7.273438 10.867188 -4.914062 7.152344 -1.878906 C 7.550781 -4.636719 7.953125 -7.550781 8.351562 -10.667969 C 8.390625 -11.070312 8.152344 -11.386719 7.832031 -11.507812 C 7.472656 -11.628906 7.074219 -11.46875 6.914062 -11.148438 C 6.234375 -10.03125 4.355469 -7.152344 2.796875 -5.074219 C 2.15625 -4.277344 1.796875 -3.957031 1.597656 -3.835938 C 1.199219 -5.113281 2.4375 -10.828125 4.953125 -13.066406 C 5.953125 -13.984375 6.875 -13.984375 7.871094 -13.105469 C 8.191406 -12.828125 8.671875 -12.828125 8.949219 -13.148438 C 9.230469 -13.464844 9.191406 -13.945312 8.910156 -14.226562 C 7.3125 -15.664062 5.875 -15.425781 4.953125 -14.945312 C 1.71875 -13.347656 -0.238281 -6.714844 0.0390625 -4.035156 C 0.121094 -2.835938 0.679688 -2.398438 1.117188 -2.277344 C 2.199219 -1.996094 3.238281 -3.117188 3.996094 -4.15625 C 4.796875 -5.195312 5.632812 -6.394531 6.394531 -7.472656 C 6.074219 -4.953125 5.714844 -2.597656 5.355469 -0.359375 C 1.078125 3.355469 -3.195312 8.03125 -6.433594 13.945312 C -8.871094 18.339844 -9.671875 22.058594 -9.910156 24.375 C -10.230469 27.414062 -9.789062 29.929688 -8.671875 31.289062 C -8.070312 32.046875 -7.3125 32.449219 -6.472656 32.449219 C -6.234375 32.449219 -5.953125 32.40625 -5.675781 32.328125 C -1.839844 31.25 3.195312 22.136719 6.753906 0.441406 C 10.910156 -3.117188 14.984375 -5.753906 18.0625 -7.753906 C 18.421875 -7.992188 18.542969 -8.472656 18.300781 -8.832031 Z M -6.074219 30.847656 C -6.632812 31.007812 -7.074219 30.847656 -7.472656 30.328125 C -8.992188 28.453125 -9.230469 22.179688 -5.113281 14.707031 C -2.316406 9.628906 1.277344 5.472656 4.914062 2.078125 C 1.277344 23.015625 -3.515625 30.128906 -6.074219 30.847656 Z M -6.074219 30.847656" transform="translate(44.104 42.217)"/></g></g></g><g fill="#4C49AC"><g><g><path d="M 11.667969 -9.070312 C 11.308594 -9.3125 10.867188 -9.191406 10.628906 -8.832031 C 7.953125 -4.515625 3.476562 -0.441406 2.117188 -1 C 1.957031 -1.078125 0.679688 -1.839844 2.4375 -8.589844 C 2.515625 -9.03125 2.277344 -9.429688 1.878906 -9.550781 C 1.4375 -9.628906 1.039062 -9.390625 0.917969 -8.992188 C -0.519531 -3.355469 -0.320312 -0.359375 1.480469 0.398438 C 1.757812 0.519531 2.039062 0.558594 2.316406 0.558594 C 5.316406 0.558594 9.910156 -4.796875 11.949219 -8.03125 C 12.148438 -8.390625 12.027344 -8.871094 11.667969 -9.070312 Z M 2.238281 -12.308594 C 4.277344 -12.1875 4.234375 -14.746094 2.597656 -14.1875 C 1.757812 -13.945312 0.679688 -12.386719 2.238281 -12.308594 Z M 2.238281 -12.308594" transform="translate(60.563 42.217)"/></g></g></g><g fill="#4C49AC"><g><g><path d="M 33.726562 -23.578125 C 33.207031 -24.296875 30.890625 -24.734375 6.074219 -24.175781 C 6.875 -27.414062 7.59375 -30.328125 8.230469 -32.6875 C 8.351562 -33.125 8.113281 -33.527344 7.710938 -33.644531 C 7.3125 -33.765625 6.875 -33.527344 6.753906 -33.125 C 6.074219 -30.609375 5.316406 -27.574219 4.476562 -24.136719 C 2.277344 -24.097656 -0.121094 -24.054688 -2.71875 -23.976562 C -6.273438 -23.894531 -9.070312 -23.816406 -10.148438 -23.816406 C -10.589844 -23.816406 -10.949219 -23.457031 -10.949219 -23.058594 C -10.949219 -22.617188 -10.589844 -22.257812 -10.148438 -22.257812 C -9.03125 -22.296875 -6.234375 -22.335938 -2.675781 -22.457031 C -0.800781 -22.496094 1.519531 -22.539062 4.117188 -22.617188 C 2.398438 -15.34375 0.441406 -6.632812 -1.320312 1.878906 C -2.597656 8.113281 -3.636719 13.507812 -4.316406 17.460938 C -4.675781 19.539062 -4.914062 21.179688 -5.035156 22.296875 C -5.195312 23.816406 -5.273438 24.695312 -4.515625 24.976562 C -4.394531 24.976562 -4.316406 25.015625 -4.195312 25.015625 C -3.515625 25.015625 -3.15625 24.054688 -2.835938 23.175781 C -2.675781 22.777344 -2.878906 22.335938 -3.277344 22.179688 C -3.355469 22.179688 -3.398438 22.136719 -3.476562 22.136719 C -3.078125 19.019531 -1.878906 12.027344 0.441406 1 C 2.15625 -7.351562 4.035156 -15.703125 5.714844 -22.65625 C 16.703125 -22.898438 30.96875 -23.097656 32.605469 -22.539062 C 32.886719 -22.296875 33.246094 -22.296875 33.566406 -22.496094 C 33.886719 -22.738281 33.964844 -23.214844 33.726562 -23.578125 Z M 33.726562 -23.578125" transform="translate(70.67 42.217)"/></g></g></g><g fill="#4C49AC"><g><g><path d="M 16.703125 -8.871094 C 16.34375 -9.03125 15.863281 -8.871094 15.703125 -8.511719 C 12.667969 -2.316406 10.390625 -0.359375 9.3125 -0.558594 C 8.871094 -0.640625 7.433594 -1.480469 7.074219 -8.472656 C 7.074219 -8.792969 6.832031 -9.070312 6.554688 -9.152344 C 6.234375 -9.230469 5.875 -9.152344 5.714844 -8.871094 C 5.472656 -8.589844 5.234375 -8.273438 4.996094 -7.910156 C 3.996094 -6.554688 2.675781 -4.714844 1.078125 -2.996094 C 0.839844 -2.71875 0.640625 -2.558594 0.519531 -2.476562 C 0.238281 -3.875 1.71875 -9.230469 4.074219 -10.910156 C 4.753906 -11.386719 5.675781 -11.75 6.914062 -10.308594 C 7.191406 -9.988281 7.671875 -9.949219 7.992188 -10.230469 C 8.3125 -10.46875 8.351562 -10.988281 8.113281 -11.308594 C 6.59375 -13.066406 5.15625 -13.027344 4.195312 -12.707031 C 1.117188 -11.628906 -0.960938 -5.714844 -1.039062 -2.996094 C -1.078125 -1.878906 -0.757812 -1.160156 -0.121094 -0.917969 C 0.878906 -0.519531 1.878906 -1.597656 2.199219 -1.957031 C 3.554688 -3.4375 4.796875 -5.035156 5.675781 -6.273438 C 6.113281 -1.71875 7.191406 0.558594 8.992188 0.960938 C 9.152344 0.960938 9.3125 1 9.46875 1 C 12.1875 1 15.105469 -3.757812 17.0625 -7.832031 C 17.261719 -8.230469 17.101562 -8.671875 16.703125 -8.871094 Z M 16.703125 -8.871094" transform="translate(75.983 42.217)"/></g></g></g><g fill="#4C49AC"><g><g><path d="M 11.75 -37.441406 C 11.46875 -37.800781 11.070312 -37.960938 10.667969 -37.921875 C 8.390625 -37.523438 5.953125 -29.011719 5.273438 -26.414062 C 3.277344 -18.78125 0.757812 -7.953125 -1.277344 1.757812 C -2.238281 6.355469 -2.996094 10.230469 -3.476562 13.027344 C -4.277344 17.742188 -4.15625 18.339844 -3.398438 18.542969 C -3.316406 18.582031 -3.238281 18.582031 -3.15625 18.582031 C -2.4375 18.582031 -2.078125 17.621094 -1.71875 16.582031 C -1.597656 16.183594 -1.796875 15.746094 -2.199219 15.625 C -2.238281 15.585938 -2.277344 15.585938 -2.316406 15.585938 C -1.480469 9.832031 1.957031 -6.914062 5.472656 -20.9375 C 5.472656 -20.980469 5.515625 -21.019531 5.554688 -21.058594 C 10.75 -29.289062 12.789062 -35.84375 11.75 -37.441406 Z M 6.832031 -26.332031 C 8.351562 -31.96875 9.710938 -34.683594 10.429688 -35.804688 C 10.269531 -34.324219 9.390625 -31.128906 6.832031 -26.332031 Z M 6.832031 -26.332031" transform="translate(90.844 42.217)"/></g></g></g><g fill="#4C49AC"><g><g><path d="M 39 -9.109375 C 38.761719 -9.46875 38.28125 -9.550781 37.960938 -9.3125 C 33.886719 -6.433594 30.210938 -3.675781 26.851562 -1.078125 C 24.574219 -4.835938 18.5 -7.3125 10.390625 -10.589844 C 9.351562 -10.988281 8.3125 -11.429688 7.234375 -11.867188 C 4.035156 -13.148438 2.917969 -15.144531 3.796875 -17.902344 C 4.996094 -21.738281 10.03125 -26.8125 16.863281 -31.167969 C 23.375 -35.285156 29.769531 -37.601562 32.765625 -36.921875 C 33.726562 -36.722656 34.804688 -36.164062 34.484375 -33.925781 C 34.40625 -33.527344 34.726562 -33.125 35.125 -33.046875 C 35.5625 -33.007812 35.964844 -33.285156 36.003906 -33.726562 C 36.484375 -37.121094 34.40625 -38.121094 33.125 -38.441406 C 25.855469 -40.078125 5.273438 -27.730469 2.316406 -18.382812 C 1.238281 -14.863281 2.757812 -12.027344 6.632812 -10.429688 C 7.710938 -9.988281 8.792969 -9.550781 9.832031 -9.152344 C 18.542969 -5.632812 23.894531 -3.316406 25.65625 -0.160156 C 11.507812 10.910156 4.316406 18.820312 5.515625 22.21875 C 5.714844 22.777344 6.3125 23.617188 7.992188 23.617188 C 8.113281 23.617188 8.273438 23.617188 8.390625 23.617188 C 13.746094 23.214844 25.414062 15.226562 27.652344 3.917969 C 27.933594 2.597656 27.851562 1.398438 27.53125 0.320312 C 30.929688 -2.277344 34.683594 -5.074219 38.839844 -8.03125 C 39.199219 -8.3125 39.28125 -8.792969 39 -9.109375 Z M 26.132812 3.636719 C 23.976562 14.425781 12.667969 21.738281 8.273438 22.097656 C 7.871094 22.097656 7.113281 22.097656 6.992188 21.699219 C 6.554688 20.5 8.792969 17.101562 12.707031 13.148438 C 16.023438 9.75 20.539062 5.792969 26.171875 1.359375 C 26.332031 2.078125 26.292969 2.796875 26.132812 3.636719 Z M 26.132812 3.636719" transform="translate(109.181 42.217)"/></g></g></g><g fill="#4C49AC"><g><g><path d="M 11.667969 -9.070312 C 11.308594 -9.3125 10.867188 -9.191406 10.628906 -8.832031 C 7.953125 -4.515625 3.476562 -0.441406 2.117188 -1 C 1.957031 -1.078125 0.679688 -1.839844 2.4375 -8.589844 C 2.515625 -9.03125 2.277344 -9.429688 1.878906 -9.550781 C 1.4375 -9.628906 1.039062 -9.390625 0.917969 -8.992188 C -0.519531 -3.355469 -0.320312 -0.359375 1.480469 0.398438 C 1.757812 0.519531 2.039062 0.558594 2.316406 0.558594 C 5.316406 0.558594 9.910156 -4.796875 11.949219 -8.03125 C 12.148438 -8.390625 12.027344 -8.871094 11.667969 -9.070312 Z M 2.238281 -12.308594 C 4.277344 -12.1875 4.234375 -14.746094 2.597656 -14.1875 C 1.757812 -13.945312 0.679688 -12.386719 2.238281 -12.308594 Z M 2.238281 -12.308594" transform="translate(146.653 42.217)"/></g></g></g><g fill="#4C49AC"><g><g><path d="M 18.300781 -8.832031 C 18.0625 -9.191406 17.582031 -9.269531 17.261719 -9.070312 C 14.464844 -7.273438 10.867188 -4.914062 7.152344 -1.878906 C 7.550781 -4.636719 7.953125 -7.550781 8.351562 -10.667969 C 8.390625 -11.070312 8.152344 -11.386719 7.832031 -11.507812 C 7.472656 -11.628906 7.074219 -11.46875 6.914062 -11.148438 C 6.234375 -10.03125 4.355469 -7.152344 2.796875 -5.074219 C 2.15625 -4.277344 1.796875 -3.957031 1.597656 -3.835938 C 1.199219 -5.113281 2.4375 -10.828125 4.953125 -13.066406 C 5.953125 -13.984375 6.875 -13.984375 7.871094 -13.105469 C 8.191406 -12.828125 8.671875 -12.828125 8.949219 -13.148438 C 9.230469 -13.464844 9.191406 -13.945312 8.910156 -14.226562 C 7.3125 -15.664062 5.875 -15.425781 4.953125 -14.945312 C 1.71875 -13.347656 -0.238281 -6.714844 0.0390625 -4.035156 C 0.121094 -2.835938 0.679688 -2.398438 1.117188 -2.277344 C 2.199219 -1.996094 3.238281 -3.117188 3.996094 -4.15625 C 4.796875 -5.195312 5.632812 -6.394531 6.394531 -7.472656 C 6.074219 -4.953125 5.714844 -2.597656 5.355469 -0.359375 C 1.078125 3.355469 -3.195312 8.03125 -6.433594 13.945312 C -8.871094 18.339844 -9.671875 22.058594 -9.910156 24.375 C -10.230469 27.414062 -9.789062 29.929688 -8.671875 31.289062 C -8.070312 32.046875 -7.3125 32.449219 -6.472656 32.449219 C -6.234375 32.449219 -5.953125 32.40625 -5.675781 32.328125 C -1.839844 31.25 3.195312 22.136719 6.753906 0.441406 C 10.910156 -3.117188 14.984375 -5.753906 18.0625 -7.753906 C 18.421875 -7.992188 18.542969 -8.472656 18.300781 -8.832031 Z M -6.074219 30.847656 C -6.632812 31.007812 -7.074219 30.847656 -7.472656 30.328125 C -8.992188 28.453125 -9.230469 22.179688 -5.113281 14.707031 C -2.316406 9.628906 1.277344 5.472656 4.914062 2.078125 C 1.277344 23.015625 -3.515625 30.128906 -6.074219 30.847656 Z M -6.074219 30.847656" transform="translate(156.76 42.217)"/></g></g></g><g fill="#4C49AC"><g><g><path d="M 16.0625 -8.910156 C 15.703125 -9.109375 15.226562 -8.992188 15.023438 -8.589844 C 14.066406 -6.953125 11.546875 -2.515625 10.109375 -2.675781 C 9.832031 -2.71875 9.03125 -3.117188 8.230469 -5.914062 C 7.671875 -7.871094 6.914062 -9.710938 5.433594 -9.789062 C 4.355469 -9.871094 3.15625 -9.03125 1.320312 -5.59375 C 1.796875 -7.3125 2.316406 -9.03125 2.71875 -10.429688 C 2.878906 -10.949219 2.996094 -11.386719 3.117188 -11.828125 C 3.238281 -12.226562 2.996094 -12.667969 2.597656 -12.789062 C 2.199219 -12.90625 1.757812 -12.667969 1.636719 -12.226562 C 1.519531 -11.828125 1.398438 -11.347656 1.238281 -10.867188 C 0.199219 -7.3125 -1.359375 -1.917969 -1.757812 1.359375 C -1.796875 1.71875 -1.558594 2.078125 -1.199219 2.15625 C -1.117188 2.199219 -1.078125 2.199219 -1 2.199219 C -0.679688 2.199219 -0.398438 1.996094 -0.28125 1.71875 C 3.476562 -7.632812 4.996094 -8.273438 5.355469 -8.273438 C 5.433594 -8.273438 5.992188 -8.113281 6.753906 -5.472656 C 7.550781 -2.71875 8.589844 -1.320312 9.949219 -1.160156 C 11.988281 -0.917969 13.824219 -3.4375 16.34375 -7.832031 C 16.582031 -8.230469 16.421875 -8.671875 16.0625 -8.910156 Z M 16.0625 -8.910156" transform="translate(173.22 42.217)"/></g></g></g><g fill="#4C49AC"><g><g><path d="M 16.703125 -8.871094 C 16.34375 -9.03125 15.863281 -8.871094 15.703125 -8.511719 C 12.667969 -2.316406 10.390625 -0.359375 9.3125 -0.558594 C 8.871094 -0.640625 7.433594 -1.480469 7.074219 -8.472656 C 7.074219 -8.792969 6.832031 -9.070312 6.554688 -9.152344 C 6.234375 -9.230469 5.875 -9.152344 5.714844 -8.871094 C 5.472656 -8.589844 5.234375 -8.273438 4.996094 -7.910156 C 3.996094 -6.554688 2.675781 -4.714844 1.078125 -2.996094 C 0.839844 -2.71875 0.640625 -2.558594 0.519531 -2.476562 C 0.238281 -3.875 1.71875 -9.230469 4.074219 -10.910156 C 4.753906 -11.386719 5.675781 -11.75 6.914062 -10.308594 C 7.191406 -9.988281 7.671875 -9.949219 7.992188 -10.230469 C 8.3125 -10.46875 8.351562 -10.988281 8.113281 -11.308594 C 6.59375 -13.066406 5.15625 -13.027344 4.195312 -12.707031 C 1.117188 -11.628906 -0.960938 -5.714844 -1.039062 -2.996094 C -1.078125 -1.878906 -0.757812 -1.160156 -0.121094 -0.917969 C 0.878906 -0.519531 1.878906 -1.597656 2.199219 -1.957031 C 3.554688 -3.4375 4.796875 -5.035156 5.675781 -6.273438 C 6.113281 -1.71875 7.191406 0.558594 8.992188 0.960938 C 9.152344 0.960938 9.3125 1 9.46875 1 C 12.1875 1 15.105469 -3.757812 17.0625 -7.832031 C 17.261719 -8.230469 17.101562 -8.671875 16.703125 -8.871094 Z M 16.703125 -8.871094" transform="translate(187.481 42.217)"/></g></g></g><g fill="#4C49AC"><g><g><path d="M 33.726562 -23.578125 C 33.207031 -24.296875 30.890625 -24.734375 6.074219 -24.175781 C 6.875 -27.414062 7.59375 -30.328125 8.230469 -32.6875 C 8.351562 -33.125 8.113281 -33.527344 7.710938 -33.644531 C 7.3125 -33.765625 6.875 -33.527344 6.753906 -33.125 C 6.074219 -30.609375 5.316406 -27.574219 4.476562 -24.136719 C 2.277344 -24.097656 -0.121094 -24.054688 -2.71875 -23.976562 C -6.273438 -23.894531 -9.070312 -23.816406 -10.148438 -23.816406 C -10.589844 -23.816406 -10.949219 -23.457031 -10.949219 -23.058594 C -10.949219 -22.617188 -10.589844 -22.257812 -10.148438 -22.257812 C -9.03125 -22.296875 -6.234375 -22.335938 -2.675781 -22.457031 C -0.800781 -22.496094 1.519531 -22.539062 4.117188 -22.617188 C 2.398438 -15.34375 0.441406 -6.632812 -1.320312 1.878906 C -2.597656 8.113281 -3.636719 13.507812 -4.316406 17.460938 C -4.675781 19.539062 -4.914062 21.179688 -5.035156 22.296875 C -5.195312 23.816406 -5.273438 24.695312 -4.515625 24.976562 C -4.394531 24.976562 -4.316406 25.015625 -4.195312 25.015625 C -3.515625 25.015625 -3.15625 24.054688 -2.835938 23.175781 C -2.675781 22.777344 -2.878906 22.335938 -3.277344 22.179688 C -3.355469 22.179688 -3.398438 22.136719 -3.476562 22.136719 C -3.078125 19.019531 -1.878906 12.027344 0.441406 1 C 2.15625 -7.351562 4.035156 -15.703125 5.714844 -22.65625 C 16.703125 -22.898438 30.96875 -23.097656 32.605469 -22.539062 C 32.886719 -22.296875 33.246094 -22.296875 33.566406 -22.496094 C 33.886719 -22.738281 33.964844 -23.214844 33.726562 -23.578125 Z M 33.726562 -23.578125" transform="translate(202.343 42.217)"/></g></g></g><g fill="#4C49AC"><g><g><path d="M 15.902344 -8.632812 C 15.542969 -8.832031 15.066406 -8.710938 14.863281 -8.351562 C 11.070312 -2.277344 7.871094 0.441406 7.191406 0.199219 C 7.191406 0.199219 6.394531 -0.238281 7.152344 -4.835938 C 7.433594 -6.394531 7.550781 -7.273438 6.792969 -7.59375 C 6.074219 -7.871094 5.632812 -7.273438 4.796875 -6.074219 C 4.117188 -5.113281 3.195312 -3.835938 2.199219 -2.957031 C 2.078125 -2.878906 1.636719 -2.476562 1.4375 -2.636719 C 0.839844 -3.117188 0.71875 -5.714844 2.117188 -8.113281 C 2.359375 -8.472656 2.199219 -8.949219 1.839844 -9.191406 C 1.480469 -9.390625 1 -9.269531 0.800781 -8.910156 C -0.800781 -6.113281 -0.960938 -2.636719 0.441406 -1.480469 C 0.800781 -1.160156 1.796875 -0.597656 3.195312 -1.757812 C 4.117188 -2.558594 4.914062 -3.597656 5.554688 -4.476562 C 4.996094 -0.757812 5.316406 1.117188 6.632812 1.636719 C 6.832031 1.71875 7.03125 1.71875 7.191406 1.71875 C 10.230469 1.71875 15.144531 -5.953125 16.144531 -7.550781 C 16.382812 -7.910156 16.265625 -8.390625 15.902344 -8.632812 Z M 15.902344 -8.632812" transform="translate(207.656 42.217)"/></g></g></g><g fill="#4C49AC"><g><g><path d="M 17.542969 -9.03125 C 17.144531 -9.230469 16.664062 -9.070312 16.503906 -8.671875 C 11.90625 1 7.550781 5.953125 6.59375 5.792969 C 6.511719 5.753906 5.113281 4.394531 9.628906 -9.46875 C 9.75 -9.832031 10.03125 -10.667969 9.390625 -11.109375 C 8.792969 -11.589844 8.113281 -11.148438 6.992188 -10.390625 C 5.792969 -9.628906 4.15625 -8.550781 2.878906 -8.710938 C 6.953125 -15.746094 6.554688 -17.300781 5.632812 -17.902344 C 4.195312 -18.742188 2.117188 -16.304688 1.160156 -14.90625 C -0.800781 -11.867188 -0.757812 -9.109375 1.320312 -7.710938 C 3.4375 -6.234375 6.195312 -8.03125 7.832031 -9.109375 C 7.871094 -9.152344 7.871094 -9.152344 7.910156 -9.191406 C 6.355469 -4.277344 5.355469 -0.398438 4.996094 2.277344 C 4.554688 5.234375 4.875 6.792969 5.992188 7.234375 C 6.195312 7.273438 6.355469 7.3125 6.554688 7.3125 C 9.75 7.3125 15.304688 -2.515625 17.902344 -7.992188 C 18.0625 -8.390625 17.902344 -8.871094 17.542969 -9.03125 Z M 1.398438 -11.789062 C 1.957031 -13.945312 3.835938 -15.945312 4.675781 -16.421875 C 4.59375 -15.785156 4.15625 -13.984375 1.597656 -9.550781 C 1.320312 -9.988281 1.117188 -10.667969 1.398438 -11.789062 Z M 1.398438 -11.789062" transform="translate(221.958 42.217)"/></g></g></g><g fill="#4C49AC"><g><g><path d="M 13.507812 -8.910156 C 13.148438 -9.152344 12.667969 -9.070312 12.425781 -8.710938 C 9.429688 -4.515625 6.992188 -1.878906 4.59375 -0.160156 C 3.398438 0.679688 2.238281 0.839844 1.480469 0.28125 C 1 -0.078125 -0.480469 -1.679688 1.238281 -7.273438 C 5.113281 -10.46875 7.234375 -13.507812 6.671875 -15.105469 C 6.472656 -15.585938 5.992188 -15.902344 5.472656 -15.902344 C 3.875 -15.863281 1.4375 -13.105469 -0.160156 -7.953125 C -2.117188 -1.597656 -0.519531 0.71875 0.597656 1.519531 C 1.160156 1.957031 1.796875 2.15625 2.515625 2.15625 C 3.4375 2.15625 4.476562 1.796875 5.472656 1.078125 C 8.03125 -0.757812 10.550781 -3.476562 13.667969 -7.832031 C 13.90625 -8.191406 13.824219 -8.671875 13.507812 -8.910156 Z M 5.15625 -14.226562 C 4.996094 -13.585938 4.316406 -12.308594 2.4375 -10.390625 C 3.476562 -12.707031 4.59375 -13.824219 5.15625 -14.226562 Z M 5.15625 -14.226562" transform="translate(237.897 42.217)"/></g></g></g></svg>